
        <svg xmlns="http://www.w3.org/2000/svg" xmlns:xlink="http://www.w3.org/1999/xlink" version="1.1" width="3181.8181818181824" 
        height="1848.4392478909783" viewBox="0 0 3181.8181818181824 1848.4392478909783">
			<rect fill="#1c96e8" width="3181.8181818181824" height="1848.4392478909783"/>
			<g transform="scale(9.090909090909092) translate(10, 10)">
				<defs id="SvgjsDefs2657"></defs><g id="SvgjsG2658" featureKey="ghXSps-0" transform="matrix(1.1111110169210632,0,0,1.1111110169210632,109.7777784323986,-5.555555084605316)" fill="#ffffff"><path xmlns="http://www.w3.org/2000/svg" d="M85,69.7v-6.8C85,54,78.1,46,69.3,46H30.7c-5.3,0-9.7-3.5-9.7-8.9v-6.8c5-1.4,9.7-6.5,9.7-12.4  C30.7,10.8,24.9,5,17.9,5S4.7,10.8,4.7,17.9c0,6,3.3,11,9.3,12.4v6.8C14,46,21.9,54,30.7,54H33v15.7c-5,1.4-9.2,6.5-9.2,12.4  c0,7.1,6,12.9,13.1,12.9s12.8-5.8,12.8-12.9c0-6-3.7-11-9.7-12.4V54h29.3c5.3,0,8.7,3.5,8.7,8.9v6.8c-5,1.4-9.2,6.5-9.2,12.4  c0,7.1,6,12.9,13.1,12.9s12.8-5.8,12.8-12.9C94.7,76.2,91,71.1,85,69.7z M11.5,17.9c0-3.5,2.9-6.4,6.4-6.4s6.4,2.9,6.4,6.4  s-2.9,6.4-6.4,6.4S11.5,21.4,11.5,17.9z M43.6,82.1c0,3.5-2.9,6.4-6.4,6.4s-6.4-2.9-6.4-6.4c0-3.5,2.9-6.4,6.4-6.4  S43.6,78.6,43.6,82.1z M82.1,88.5c-3.5,0-6.4-2.9-6.4-6.4c0-3.5,2.9-6.4,6.4-6.4s6.4,2.9,6.4,6.4C88.5,85.7,85.7,88.5,82.1,88.5z"></path></g><g id="SvgjsG2659" featureKey="anH1Ye-0" transform="matrix(3.5339462610708092,0,0,3.5339462610708092,8.425584461857818e-7,99.78582812812641)" fill="#c8f64a"><path d="M5.16 5.720000000000001 c0.24 0 0.74 0.02668 1.5 0.08002 l0 2.12 c-0.37334 -0.04 -0.71334 -0.06 -1.02 -0.06 c-0.41334 0 -0.7 0.09 -0.86 0.27 s-0.24 0.49 -0.24 0.93 l0 0.6 l1.96 0 l0 1.9 l-1.96 0 l0 8.44 l-2.84 0 l0 -8.44 l-1.7 0 l0 -1.9 l1.7 0 l0 -0.76 c0 -1.0133 0.30334 -1.7967 0.91 -2.35 s1.4567 -0.83 2.55 -0.83 z M10.66 5.720000000000001 l0 14.28 l-2.84 0 l0 -14.28 l2.84 0 z M17.92 9.38 c1.6533 0 2.96 0.50334 3.92 1.51 s1.44 2.3234 1.44 3.95 c0 1.64 -0.49 2.9566 -1.47 3.95 s-2.2766 1.49 -3.89 1.49 c-1.64 0 -2.94 -0.50334 -3.9 -1.51 s-1.44 -2.3166 -1.44 -3.93 c0 -1.6667 0.49 -2.9934 1.47 -3.98 s2.27 -1.48 3.87 -1.48 z M15.42 14.84 c0 1.0533 0.21334 1.8666 0.64 2.44 s1.0467 0.86 1.86 0.86 c0.84 0 1.47 -0.29334 1.89 -0.88 s0.63 -1.3933 0.63 -2.42 c0 -1.0667 -0.21666 -1.8867 -0.65 -2.46 s-1.0633 -0.86 -1.89 -0.86 c-0.8 0 -1.4133 0.28666 -1.84 0.86 s-0.64 1.3933 -0.64 2.46 z M27.16 9.66 l1.9 7.02 l0.04 0 l1.72 -7.02 l2.76 0 l1.76 7 l0.04 0 l1.9 -7 l2.92 0 l-3.26 10.34 l-2.92 0 l-1.84 -6.94 l-0.04 0 l-1.76 6.94 l-2.94 0 l-3.28 -10.34 l3 0 z M45.6 9.38 c1.4933 0 2.54 0.53334 3.14 1.6 l0.04 0 l0 -1.32 l2.7 0 l0 13.98 l-2.84 0 l0 -4.94 l-0.04 0 c-0.30666 0.52 -0.75 0.91334 -1.33 1.18 s-1.2233 0.4 -1.93 0.4 c-0.81334 0 -1.5533 -0.21666 -2.22 -0.65 s-1.1933 -1.05 -1.58 -1.85 s-0.58 -1.7533 -0.58 -2.86 c0 -1.64 0.42334 -2.9734 1.27 -4 s1.97 -1.54 3.37 -1.54 z M43.8 14.84 c0 1.0667 0.21664 1.8834 0.64998 2.45 s1.0367 0.85 1.81 0.85 c0.8 0 1.4133 -0.28666 1.84 -0.86 s0.64 -1.3733 0.64 -2.4 c0 -1.0533 -0.22334 -1.8767 -0.67 -2.47 s-1.0367 -0.89 -1.77 -0.89 c-0.78666 0 -1.4 0.3 -1.84 0.9 s-0.66 1.4067 -0.66 2.42 z M56.46 9.66 l0 5.86 c0 0.8 0.12666 1.42 0.38 1.86 s0.73334 0.66 1.44 0.66 c0.78666 0 1.35 -0.23334 1.69 -0.7 s0.51 -1.2133 0.51 -2.24 l0 -5.44 l2.84 0 l0 10.34 l-2.7 0 l0 -1.44 l-0.06 0 c-0.70666 1.1467 -1.7667 1.72 -3.18 1.72 c-1.3467 0 -2.31 -0.34334 -2.89 -1.03 s-0.87 -1.7433 -0.87 -3.17 l0 -6.42 l2.84 0 z M70.26 9.38 c0.97334 0 1.84 0.22664 2.6 0.67998 s1.3567 1.11 1.79 1.97 s0.65 1.85 0.65 2.97 c0 0.10666 -0.0066602 0.28 -0.02 0.52 l-7.46 0 c0.02666 0.82666 0.24332 1.47 0.64998 1.93 s1.03 0.69 1.87 0.69 c0.52 0 0.99666 -0.13 1.43 -0.39 s0.71 -0.57666 0.83 -0.95 l2.5 0 c-0.73334 2.32 -2.3466 3.48 -4.84 3.48 c-0.94666 -0.01334 -1.8233 -0.22 -2.63 -0.62 s-1.45 -1.0233 -1.93 -1.87 s-0.72 -1.83 -0.72 -2.95 c0 -1.0533 0.24334 -2.0134 0.73 -2.88 s1.1333 -1.5133 1.94 -1.94 s1.6767 -0.64 2.61 -0.64 z M72.44 13.719999999999999 c-0.13334 -0.77334 -0.38 -1.3333 -0.74 -1.68 s-0.87334 -0.52 -1.54 -0.52 c-0.69334 0 -1.24 0.19666 -1.64 0.59 s-0.63334 0.93 -0.7 1.61 l4.62 0 z M81.20000000000002 9.38 c1.3867 0 2.47 0.28002 3.25 0.84002 s1.2167 1.38 1.31 2.46 l-2.7 0 c-0.04 -0.49334 -0.22 -0.85 -0.54 -1.07 s-0.78666 -0.33 -1.4 -0.33 c-0.53334 0 -0.93 0.08 -1.19 0.24 s-0.39 0.4 -0.39 0.72 c0 0.24 0.08666 0.44 0.26 0.6 s0.43668 0.3 0.79002 0.42 s0.74334 0.22 1.17 0.3 c1.2933 0.25334 2.2066 0.51334 2.74 0.78 s0.92334 0.58666 1.17 0.96 s0.37 0.83334 0.37 1.38 c0 1.16 -0.42334 2.05 -1.27 2.67 s-1.9967 0.93 -3.45 0.93 c-1.52 0 -2.7034 -0.32666 -3.55 -0.98 s-1.2833 -1.54 -1.31 -2.66 l2.7 0 c0 0.53334 0.20666 0.95668 0.62 1.27 s0.93334 0.47 1.56 0.47 c0.53334 0 0.97668 -0.11666 1.33 -0.35 s0.53 -0.55668 0.53 -0.97002 c0 -0.26666 -0.11 -0.48666 -0.33 -0.66 s-0.53 -0.32668 -0.93 -0.46002 s-1.02 -0.28668 -1.86 -0.46002 c-0.66666 -0.13334 -1.26 -0.31334 -1.78 -0.54 s-0.91666 -0.52332 -1.19 -0.88998 s-0.41 -0.81666 -0.41 -1.35 c0 -0.68 0.16334 -1.2733 0.49 -1.78 s0.82666 -0.89 1.5 -1.15 s1.51 -0.39 2.51 -0.39 z M91.30000000000001 6.5600000000000005 l0.000019531 3.1 l2.08 0 l0 1.9 l-2.08 0 l0 5.12 c0 0.48 0.08 0.8 0.24 0.96 s0.48 0.24 0.96 0.24 c0.34666 0 0.64 -0.02666 0.88 -0.08 l0 2.22 c-0.4 0.06666 -0.96 0.1 -1.68 0.1 c-1.0933 0 -1.9067 -0.18666 -2.44 -0.56 s-0.8 -1.02 -0.8 -1.94 l0 -6.06 l-1.72 0 l0 -1.9 l1.72 0 l0 -3.1 l2.84 0 z"></path></g>
			</g>
		</svg>
	