<?xml version="1.0" encoding="UTF-8" standalone="no"?>
<svg
   id="Layer_1"
   data-name="Layer 1"
   width="48"
   height="48"
   viewBox="0 0 48 48"
   version="1.1"
   sodipodi:docname="logo.svg"
   inkscape:version="1.1 (c68e22c387, 2021-05-23)"
   xmlns:inkscape="http://www.inkscape.org/namespaces/inkscape"
   xmlns:sodipodi="http://sodipodi.sourceforge.net/DTD/sodipodi-0.dtd"
   xmlns="http://www.w3.org/2000/svg"
   xmlns:svg="http://www.w3.org/2000/svg">
  <defs
     id="defs7" />
  <sodipodi:namedview
     id="namedview5"
     pagecolor="#ffffff"
     bordercolor="#111111"
     borderopacity="1"
     inkscape:pageshadow="0"
     inkscape:pageopacity="0"
     inkscape:pagecheckerboard="1"
     showgrid="false"
     inkscape:zoom="6.5"
     inkscape:cx="-25"
     inkscape:cy="27.923077"
     inkscape:window-width="1920"
     inkscape:window-height="1017"
     inkscape:window-x="-8"
     inkscape:window-y="-8"
     inkscape:window-maximized="1"
     inkscape:current-layer="Layer_1" />
  <path
     d="m 25.501788,18 h 18 a 1.5,1.5 0 0 0 1.5,-1.5 v -15 a 1.5,1.5 0 0 0 -1.5,-1.5 h -18 a 1.5,1.5 0 0 0 -1.5,1.5 v 4.47 h -13.5 a 1.5,1.5 0 0 0 -1.5000004,1.5 v 6.9 l -8.56200003,8.568 a 1.5,1.5 0 0 0 0,2.124 l 8.56200003,8.559 v 6.849 a 1.5,1.5 0 0 0 1.5000004,1.5 h 13.5 v 4.53 a 1.5,1.5 0 0 0 1.5,1.5 h 18 a 1.5,1.5 0 0 0 1.5,-1.5 v -15 a 1.5,1.5 0 0 0 -1.5,-1.5 h -18 a 1.5,1.5 0 0 0 -1.5,1.5 v 7.47 h -12 v -5.349 l 8.562,-8.559 a 1.5,1.5 0 0 0 0,-2.124 l -8.562,-8.559 V 8.97 h 12 v 7.53 a 1.5,1.5 0 0 0 1.5,1.5 z m 1.5,15 h 15 v 12 h -15 z m -16.5,-2.121 L 3.6227876,24 10.501788,17.121 17.380788,24 Z M 27.001788,3 h 15 v 12 h -15 z"
     id="path2"
     style="stroke-width:3" />
</svg>
