<?xml version="1.0" standalone="no"?>
<!DOCTYPE svg PUBLIC "-//W3C//DTD SVG 20010904//EN"
 "http://www.w3.org/TR/2001/REC-SVG-20010904/DTD/svg10.dtd">
<svg version="1.0" xmlns="http://www.w3.org/2000/svg"
 width="700.000000pt" height="700.000000pt" viewBox="0 0 700.000000 700.000000"
 preserveAspectRatio="xMidYMid meet">
<metadata>
Created by potrace 1.14, written by Peter Selinger 2001-2017
</metadata>
<g transform="translate(0.000000,700.000000) scale(0.100000,-0.100000)"
fill="#000000" stroke="none">
<path d="M3625 6981 c-22 -10 -52 -31 -67 -47 -56 -61 -58 -72 -58 -454 l0
-350 -1012 0 c-1006 0 -1012 0 -1055 -21 -51 -25 -96 -76 -112 -128 -8 -27
-11 -197 -11 -557 l0 -519 -636 -635 c-431 -430 -642 -648 -655 -675 -24 -52
-24 -138 0 -190 13 -27 224 -245 655 -675 l636 -635 0 -515 c0 -303 4 -529 10
-550 13 -49 66 -109 114 -131 39 -18 90 -19 1054 -19 l1012 0 0 -355 c0 -387
1 -398 58 -459 15 -16 45 -37 67 -47 38 -18 98 -19 1408 -19 1340 0 1369 0
1406 20 58 29 108 93 121 154 8 36 10 381 8 1171 l-3 1120 -22 40 c-24 46 -54
75 -103 101 -34 18 -87 19 -1410 19 l-1375 0 -48 -28 c-26 -15 -60 -47 -75
-69 l-27 -42 -3 -583 -2 -583 -875 0 -875 0 0 387 0 388 649 650 c639 641 649
651 661 703 9 41 9 63 0 105 -12 51 -22 61 -661 702 l-649 650 0 393 0 392
875 0 875 0 2 -588 3 -588 27 -42 c15 -22 49 -54 75 -69 l48 -28 1375 0 1375
0 40 22 c46 24 75 54 101 103 18 33 19 84 22 1155 2 790 0 1135 -8 1171 -13
61 -63 125 -121 154 -37 20 -66 20 -1406 20 -1310 0 -1370 -1 -1408 -19z
m2495 -1291 l0 -870 -1090 0 -1090 0 0 870 0 870 1090 0 1090 0 0 -870z
m-4090 -1695 l495 -495 -498 -498 -497 -497 -497 497 -498 498 495 495 c272
272 497 495 500 495 3 0 228 -223 500 -495z m4090 -2685 l0 -870 -1090 0
-1090 0 0 870 0 870 1090 0 1090 0 0 -870z"/>
</g>
</svg>
